Coordinates
version=1
nRows=24
nColumns=24
inDegrees=yes

Units are S.I. units (second, meters, Newtons, ...)
Angles are in degrees.

endheader
time	pelvis_tilt	pelvis_list	pelvis_rotation	pelvis_tx	pelvis_ty	pelvis_tz	hip_flexion_r	hip_adduction_r	hip_rotation_r	knee_angle_r	ankle_angle_r	subtalar_angle_r	mtp_angle_r	hip_flexion_l	hip_adduction_l	hip_rotation_l	knee_angle_l	ankle_angle_l	subtalar_angle_l	mtp_angle_l	lumbar_extension	lumbar_bending	lumbar_rotation
      0.78300000	     -6.01523808	      1.91402389	      1.64771591	     -0.39736736	      1.06503718	      0.29885880	     16.64459489	      0.31112181	      1.00854244	    -20.15909946	     11.09345753	     -5.47116694	      2.69016508	     22.80686302	     -1.70097303	     -4.22434160	    -69.26520636	      9.76245997	      3.65081238	      0.92158554	    -10.57567481	      3.28139427	      1.56419876
      0.78716667	     -5.97560487	      2.03991000	      1.53822276	     -0.39239808	      1.06579775	      0.29928594	     16.20637378	      0.21790372	      1.07950957	    -19.93363988	     11.21368374	     -5.39719084	      2.68265419	     23.23945422	     -1.60897139	     -4.41551118	    -68.85781325	     10.09483257	      3.90177788	      0.94696899	    -10.58870661	      3.08572044	      1.64461813
      0.79133333	     -5.93393553	      2.16544708	      1.42051826	     -0.38743833	      1.06650904	      0.29973218	     15.77100137	      0.12595529	      1.15573386	    -19.71608873	     11.35282968	     -5.29595053	      2.67383257	     23.66147397	     -1.52793489	     -4.62066457	    -68.41585680	     10.42058783	      4.19313014	      0.97671656	    -10.62279388	      2.88626380	      1.80785472
      0.79550000	     -5.87109839	      2.28617417	      1.29847780	     -0.38248566	      1.06724281	      0.30016345	     15.30950097	      0.03715704	      1.23164506	    -19.48733418	     11.48487960	     -5.19184300	      2.66413216	     24.04875132	     -1.45071307	     -4.82622087	    -67.93109078	     10.73591750	      4.46497157	      1.00765329	    -10.67826890	      2.68937911	      2.00008291
      0.79966667	     -5.82381949	      2.40225737	      1.16905565	     -0.37753679	      1.06790721	      0.30059424	     14.86886326	     -0.04719962	      1.31506114	    -19.26303733	     11.61971282	     -5.08870882	      2.65307064	     24.44249593	     -1.38149348	     -5.03486152	    -67.40862542	     11.03150133	      4.73045418	      1.04117082	    -10.71503613	      2.50616630	      2.21473467
      0.80383333	     -5.75754806	      2.50177790	      1.04422385	     -0.37259956	      1.06857343	      0.30100784	     14.40120372	     -0.11724584	      1.38695970	    -19.02142347	     11.76182471	     -4.97523320	      2.62969788	     24.81040123	     -1.33018388	     -5.23541276	    -66.85608003	     11.30343854	      4.97908729	      1.09433730	    -10.77680373	      2.32665053	      2.52259641
      0.80800000	     -5.74048512	      2.61944040	      0.91282664	     -0.36766214	      1.06911187	      0.30141864	     13.99870580	     -0.20741977	      1.47509469	    -18.80376690	     11.86817180	     -4.90156969	      2.62109803	     25.21818228	     -1.25833737	     -5.44511275	    -66.26394710	     11.58347026	      5.18778927	      1.12127899	    -10.77228144	      2.13275233	      2.62310999
      0.81216667	     -5.67156722	      2.72242266	      0.77677109	     -0.36274659	      1.06970335	      0.30182217	     13.54100865	     -0.28402086	      1.55465973	    -18.58535929	     12.01789660	     -4.79837308	      2.60277677	     25.55897220	     -1.20702618	     -5.65237261	    -65.63331884	     11.83812893	      5.45473590	      1.16631148	    -10.83458900	      1.98077639	      2.88552540
      0.81633333	     -5.63304447	      2.83841979	      0.64438781	     -0.35783231	      1.07021156	      0.30220859	     13.11875267	     -0.37836923	      1.63451005	    -18.37022904	     12.14035429	     -4.71192811	      2.59116165	     25.92126644	     -1.13577539	     -5.85392442	    -64.96493742	     12.07931949	      5.65229617	      1.19744971	    -10.86088927	      1.79439535	      3.02949730
      0.82050000	     -5.57823187	      2.92031526	      0.52160198	     -0.35292923	      1.07069696	      0.30257269	     12.67126855	     -0.43960732	      1.69824363	    -18.13869749	     12.28981049	     -4.59896907	      2.57089136	     26.26490371	     -1.10092649	     -6.03671081	    -64.28092791	     12.30078988	      5.86681064	      1.24335342	    -10.91189240	      1.63642789	      3.28070968
      0.82466667	     -5.53516755	      3.02378369	      0.39005630	     -0.34803983	      1.07114426	      0.30292069	     12.24856808	     -0.52644475	      1.77343905	    -17.92844222	     12.40758182	     -4.51902958	      2.55742479	     26.60193466	     -1.03792288	     -6.22036844	    -63.54497994	     12.51069203	      6.04444645	      1.27486848	    -10.94301804	      1.47805629	      3.41479413
      0.82883333	     -5.49536959	      3.10138970	      0.27197425	     -0.34315804	      1.07152987	      0.30324927	     11.82309519	     -0.58918542	      1.83008021	    -17.70620836	     12.55572335	     -4.40703987	      2.53464957	     26.94146049	     -0.99947124	     -6.38186741	    -62.79466934	     12.69948928	      6.21650009	      1.32089274	    -10.98019276	      1.33020286	      3.64287270
      0.83300000	     -5.46238204	      3.19029054	      0.15252389	     -0.33829032	      1.07186365	      0.30356161	     11.41381838	     -0.66719130	      1.88309169	    -17.50063766	     12.70030844	     -4.31008017	      2.51660083	     27.27455504	     -0.94629913	     -6.54115393	    -62.00529975	     12.86744864	      6.36817996	      1.35647962	    -11.00157219	      1.18241448	      3.78696040
      0.83716667	     -5.44752842	      3.27257719	      0.04166914	     -0.33343845	      1.07213025	      0.30383972	     11.02641309	     -0.74213322	      1.93328005	    -17.29851900	     12.82135603	     -4.22561581	      2.50543630	     27.61917518	     -0.88991204	     -6.67395393	    -61.18693459	     13.03131807	      6.49872273	      1.37948968	    -11.00826325	      1.04807705	      3.88930029
      0.84133333	     -5.40287963	      3.34369502	     -0.06648946	     -0.32860101	      1.07241086	      0.30410858	     10.60508911	     -0.80723816	      1.97316284	    -17.09250179	     12.96607513	     -4.12453147	      2.49330677	     27.92129711	     -0.84417398	     -6.79626187	    -60.34020788	     13.16934584	      6.61894813	      1.40267010	    -11.05160959	      0.92456072	      4.02766098
      0.84550000	     -5.37305301	      3.39798344	     -0.16199768	     -0.32378050	      1.07261113	      0.30432720	     10.19968447	     -0.86069804	      1.99082977	    -16.88623487	     13.13254504	     -3.98480704	      2.46740179	     28.23621614	     -0.80565665	     -6.89034880	    -59.47668541	     13.28733915	      6.70279692	      1.44087786	    -11.08742541	      0.81830663	      4.22864835
      0.84966667	     -5.35728294	      3.45889175	     -0.25517163	     -0.31896242	      1.07276173	      0.30453931	      9.81419949	     -0.92123172	      2.01682979	    -16.68993837	     13.26388093	     -3.91015185	      2.45581954	     28.55073039	     -0.75694036	     -6.97533214	    -58.57447743	     13.39209844	      6.77753599	      1.45834182	    -11.09301098	      0.71379824	      4.29937615
      0.85383333	     -5.36047702	      3.48203303	     -0.32887796	     -0.31414871	      1.07282142	      0.30471379	      9.43549520	     -0.94316335	      2.03256840	    -16.46693541	     13.40233686	     -3.82725845	      2.44765806	     28.88795053	     -0.73996931	     -7.02540867	    -57.67259351	     13.48706134	      6.82797641	      1.47097285	    -11.08753875	      0.64503537	      4.37862283
      0.85800000	     -5.32251495	      3.54098779	     -0.42043788	     -0.30937727	      1.07293176	      0.30487817	      9.04033870	     -1.00915745	      2.03743391	    -16.29855387	     13.56208358	     -3.71291843	      2.43339675	     29.15311931	     -0.68035804	     -7.07823033	    -56.70617128	     13.55148241	      6.85474089	      1.48821836	    -11.13427767	      0.55140153	      4.49707836
      0.86216667	     -5.33409608	      3.56641394	     -0.49220406	     -0.30460350	      1.07288712	      0.30500419	      8.69086456	     -1.04108900	      2.02965291	    -16.11533196	     13.72337877	     -3.59567493	      2.41790925	     29.47467212	     -0.64911329	     -7.09936010	    -55.74350896	     13.61100348	      6.85354296	      1.50517121	    -11.12250226	      0.48940812	      4.60169503
      0.86633333	     -5.32519540	      3.58370160	     -0.55592496	     -0.29984373	      1.07285853	      0.30509674	      8.31553703	     -1.06741287	      2.01409248	    -15.92496461	     13.88170136	     -3.47852611	      2.40073056	     29.76050863	     -0.61619765	     -7.09581911	    -54.74865367	     13.65361858	      6.82543225	      1.52169960	    -11.13920725	      0.44617578	      4.68821990
      0.87050000	     -5.34298367	      3.59039104	     -0.61410897	     -0.29509335	      1.07273487	      0.30517181	      7.97300233	     -1.08260041	      1.99734151	    -15.74418477	     14.03627734	     -3.37640809	      2.38487302	     30.06700015	     -0.58957554	     -7.07302992	    -53.73657069	     13.68564291	      6.77781059	      1.53543908	    -11.12735708	      0.41495760	      4.75576743
      0.87466667	     -5.36635028	      3.59131641	     -0.66693057	     -0.29035283	      1.07254589	      0.30522086	      7.64078263	     -1.09410197	      1.96907178	    -15.57353504	     14.20318438	     -3.25958902	      2.36700145	     30.36929403	     -0.56304699	     -7.03214121	    -52.70362612	     13.70521349	      6.69820195	      1.54949271	    -11.10912110	      0.38948598	      4.81704345
      0.87883333	     -5.36899558	      3.57794100	     -0.71196987	     -0.28562814	      1.07236742	      0.30524364	      7.28174598	     -1.09244574	      1.93425347	    -15.39290832	     14.36187147	     -3.14742072	      2.34898324	     30.63888820	     -0.54401401	     -6.97017577	    -51.64856124	     13.71676369	      6.60350626	      1.56213617	    -11.12479324	      0.38607396	      4.86671399
